<svg width="17" height="16" viewBox="0 0 17 16" fill="none" xmlns="http://www.w3.org/2000/svg">
<path d="M4.54322 6.13449L4.50256 6.157L4.46675 6.18663C4.19017 6.41542 3.77557 7.04342 4.13875 7.81966C4.44137 8.46645 5.11569 9.78738 6.3005 10.7826C7.45921 11.756 8.69649 12.2795 9.50924 12.4509L9.56026 12.4617H9.60686C9.60914 12.4619 9.61396 12.4624 9.62188 12.4636C9.64121 12.4663 9.66454 12.4703 9.70119 12.4767L9.78736 11.9842L9.70119 12.4767C9.70747 12.4778 9.71401 12.479 9.72081 12.4802C9.9709 12.5244 10.5704 12.6304 11.0729 12.1297C11.3954 11.8083 11.6898 11.4732 11.8165 11.3225C11.9055 11.2413 12.1956 11.0731 12.5626 11.1972C13.2576 11.4321 14.0839 11.9621 14.4833 12.2308C14.7925 12.439 15.4924 12.9404 15.8079 13.1682L15.8082 13.1684C15.8344 13.1873 15.8959 13.2493 15.9291 13.3354C15.9557 13.4042 15.97 13.4988 15.9061 13.6357C15.7875 13.8895 15.4266 14.374 14.9378 14.7978C14.4401 15.2294 13.9222 15.5 13.5072 15.5C13.5087 15.5 13.5072 15.4998 13.5025 15.4992C13.484 15.4967 13.4153 15.4874 13.2792 15.4568C13.1262 15.4225 12.9195 15.3686 12.6669 15.2926C12.1622 15.1407 11.485 14.904 10.7029 14.5675C9.13747 13.8941 7.1668 12.8277 5.32181 11.2572C4.1613 10.2694 3.06637 8.90356 2.2138 7.62506C1.35407 6.33583 0.778956 5.19316 0.622437 4.66548L0.611482 4.62855L0.595 4.59373C0.556033 4.51141 0.50112 4.33551 0.500017 4.13603C0.498952 3.94333 0.547248 3.75923 0.674645 3.60657C1.09467 3.10322 1.53938 2.60859 2.52049 2.13395C2.61188 2.08974 2.75504 2.05076 2.89575 2.04849C3.04002 2.04617 3.11519 2.082 3.14524 2.10835C3.52063 2.43751 4.1025 3.01857 4.49455 3.51513C4.69707 3.77164 4.94183 4.09749 5.14578 4.38064C5.24776 4.52223 5.33772 4.65062 5.4062 4.75272C5.44051 4.80388 5.46789 4.84616 5.48806 4.87884C5.50186 4.90122 5.50927 4.91428 5.51241 4.9199C5.51409 4.92556 5.52179 4.94984 5.52856 4.99394C5.53707 5.0494 5.54115 5.11771 5.53536 5.18908C5.52352 5.33512 5.4755 5.45238 5.38915 5.53146C5.0962 5.79975 4.699 6.04821 4.54322 6.13449ZM9.27661 0.516129C9.27689 0.515854 9.27718 0.515567 9.2775 0.515271C9.28467 0.508522 9.29945 0.5 9.32258 0.5C13.3145 0.5 16.4984 3.53785 16.5 7.22303C16.4994 7.2239 16.4983 7.22515 16.4967 7.22666C16.4895 7.23341 16.4747 7.24194 16.4516 7.24194C16.4285 7.24194 16.4137 7.23341 16.4065 7.22666C16.4049 7.22514 16.4039 7.22389 16.4032 7.22302C16.4016 3.49946 13.2032 0.532258 9.32258 0.532258C9.29945 0.532258 9.28467 0.523736 9.2775 0.516987C9.27718 0.516691 9.27689 0.516404 9.27661 0.516129ZM9.2775 4.64602C9.27718 4.64572 9.27689 4.64544 9.27661 4.64516C9.27689 4.64489 9.27718 4.6446 9.2775 4.6443C9.28467 4.63755 9.29945 4.62903 9.32258 4.62903C10.8916 4.62903 12.1113 5.81821 12.1129 7.22303C12.1123 7.2239 12.1112 7.22515 12.1096 7.22666C12.1024 7.23341 12.0877 7.24194 12.0645 7.24194C12.0414 7.24194 12.0266 7.23341 12.0194 7.22666C12.0178 7.22514 12.0168 7.22389 12.0161 7.22302C12.0145 5.7799 10.7803 4.66129 9.32258 4.66129C9.29945 4.66129 9.28467 4.65277 9.2775 4.64602ZM9.2775 2.5815C9.27718 2.58121 9.27689 2.58092 9.27661 2.58065C9.27689 2.58037 9.27718 2.58008 9.2775 2.57979C9.28467 2.57304 9.29945 2.56452 9.32258 2.56452C12.1031 2.56452 14.3048 4.67803 14.3065 7.22302C14.3058 7.22389 14.3048 7.22515 14.3032 7.22666C14.296 7.23341 14.2812 7.24194 14.2581 7.24194C14.2349 7.24194 14.2201 7.23341 14.213 7.22666C14.2114 7.22515 14.2103 7.22389 14.2097 7.22303C14.2081 4.63967 11.9917 2.59677 9.32258 2.59677C9.29945 2.59677 9.28467 2.58825 9.2775 2.5815Z" fill="white" stroke="white" stroke-linecap="round"/>
</svg>
